# xmcd
#
# Track frame offsets:
# 182
# 11125
# 32650
# 44790
# 58070
# 69295
# 81322
# 95737
# 107492
# 119285
#
# Disc length: 1754 seconds
#
# Revision: 2
# Processed by: cddbd v1.4PL0 Copyright (c) Steve Scherf et al.
# Submitted via: Axialis_AX_CDPlayer 2.6
#
DISCID=8706d80a
DTITLE=Daniel Santos - Puerto Rico
DYEAR=1900
DGENRE=
TTITLE0=Preciosa
TTITLE1=Lamento Borincano
TTITLE2=Amor Perdido
TTITLE3=Esperanza Inútil
TTITLE4=Silencio
TTITLE5=Camapanitas De Cristal
TTITLE6=Perdón
TTITLE7=Obsesión
TTITLE8=Capullito De Alheli
TTITLE9=Cachita
EXTD=
EXTT0=
EXTT1=
EXTT2=
EXTT3=
EXTT4=
EXTT5=
EXTT6=
EXTT7=
EXTT8=
EXTT9=
PLAYORDER=
